# xmcd
# 
# Track frame offsets:
#     182
#     13952
#     28927
#     48827
#     65300
#     84890
#     103130
#     117180
#     131252
#     145532
# 
# Disc length: 2112
# 
# Revision: 4
# Processed by: cddbd v1.5.2PL0 Copyright (c) Steve Scherf et al.
# Submitted via: BonkEnc v1.0.6
# 
DISCID=7b083e0a
DTITLE=Hank Williams, Jr. - Habits Old and New
DYEAR=1980
DGENRE=Country
TTITLE0=Old Habits
TTITLE1=Dinasaur
TTITLE2=Kaw-Liga
TTITLE3=Here I Am Fallin' Again
TTITLE4=The Blues Man
TTITLE5=All In Alabama
TTITLE6=The American Way
TTITLE7=Move It On Over
TTITLE8=Won't It Be Nice
TTITLE9=If You Don't Like Hank Williams
EXTD=the real thing\n
EXTT0=
EXTT1=
EXTT2=
EXTT3=
EXTT4=
EXTT5=
EXTT6=
EXTT7=
EXTT8=
EXTT9=
PLAYORDER=
